<svg width="20" height="20" viewBox="0 0 20 20" fill="none" xmlns="http://www.w3.org/2000/svg">
<g clip-path="url(#clip0_64_73)">
<path d="M5.63325 4.03337L4.13325 2.54171L2.95825 3.71671L4.44992 5.20837L5.63325 4.03337ZM0.833252 8.75004H3.33325V10.4167H0.833252V8.75004ZM9.16658 0.458374H10.8333V2.91671H9.16658V0.458374ZM15.8666 2.53754L17.0399 3.71004L15.5483 5.20171L14.3758 4.02837L15.8666 2.53754ZM14.3666 15.1334L15.8583 16.6334L17.0333 15.4584L15.5332 13.9667L14.3666 15.1334ZM16.6666 8.75004H19.1666V10.4167H16.6666V8.75004ZM9.99992 4.58337C7.24158 4.58337 4.99992 6.82504 4.99992 9.58337C4.99992 12.3417 7.24158 14.5834 9.99992 14.5834C12.7583 14.5834 14.9999 12.3417 14.9999 9.58337C14.9999 6.82504 12.7583 4.58337 9.99992 4.58337ZM9.99992 12.9167C8.15825 12.9167 6.66658 11.425 6.66658 9.58337C6.66658 7.74171 8.15825 6.25004 9.99992 6.25004C11.8416 6.25004 13.3333 7.74171 13.3333 9.58337C13.3333 11.425 11.8416 12.9167 9.99992 12.9167ZM9.16658 16.25H10.8333V18.7084H9.16658V16.25ZM2.95825 15.45L4.13325 16.625L5.62492 15.125L4.44992 13.95L2.95825 15.45Z" fill="#E5E5E5"/>
</g>
<defs>
<clipPath id="clip0_64_73">
<rect width="20" height="20" fill="white"/>
</clipPath>
</defs>
</svg>
